<svg xmlns="http://www.w3.org/2000/svg" xmlns:xlink="http://www.w3.org/1999/xlink" width="925.455" height="615.539" viewBox="0 0 925.455 615.539">
  <defs>
    <linearGradient id="linear-gradient" x1="9.926" y1="1" x2="9.926" gradientUnits="objectBoundingBox">
      <stop offset="0" stop-color="gray" stop-opacity="0.251"/>
      <stop offset="0.54" stop-color="gray" stop-opacity="0.122"/>
      <stop offset="1" stop-color="gray" stop-opacity="0.102"/>
    </linearGradient>
  </defs>
  <g id="money" transform="translate(-4288.543 2150.522)">
    <path id="Path_290" data-name="Path 290" d="M241.9,454.74c-12.81,3.87-24.8,13.24-28,26.24-3.66,14.94,4.78,30,6,45.34,3.94,50.26-67.56,85.72-57.36,135.09,4.05,19.63,20.42,34.07,36.55,46,25.84,19.05,54.51,35.88,86.26,40.63,48.19,7.22,98.54-14,145.38-.59,37.78,10.82,66.69,42.53,104.21,54.23,28.56,8.91,59.33,5.4,89,1.79,16-1.94,32.76-4.18,45.67-13.78,24-17.87,25.51-53.16,41.58-78.45,24.82-39,79.24-46.66,124.87-39.08S926,698.4,972.23,696.88c9.88-.33,20-1.67,28.62-6.52,10.48-5.89,17.56-16.27,23.82-26.54a429.449,429.449,0,0,0,62.27-213.39c.27-12.95-.19-26.46-6.28-37.89-7.7-14.46-23.09-23.11-38.41-28.93-36.79-14-77.43-16.29-113.48-32.08C894,336.3,865.84,309.59,835.56,286.7a496.489,496.489,0,0,0-204.49-91.07c-17.39-3.36-35.44-5.76-52.72-1.88-19.91,4.47-37.07,16.88-52.5,30.24-41.05,35.54-73.95,79.39-111.78,118.34a636.389,636.389,0,0,1-84.92,73.23c-14,10.09-28.88,22.07-44.48,29.53C270.39,451.91,257,450.19,241.9,454.74Z" transform="translate(4127 -2342.275)" fill="#ebf3fa"/>
    <g id="Group_37" data-name="Group 37" transform="translate(40.138 42)">
      <rect id="Rectangle_68" data-name="Rectangle 68" width="340.625" height="211.423" rx="24.81" transform="translate(4486.468 -1959.755)" fill="#3278ab"/>
      <rect id="Rectangle_69" data-name="Rectangle 69" width="340.625" height="38.76" transform="translate(4486.468 -1922.757)" fill="#6c63ff"/>
      <rect id="Rectangle_70" data-name="Rectangle 70" width="340.625" height="38.76" transform="translate(4486.468 -1922.757)" fill="#525461"/>
      <rect id="Rectangle_71" data-name="Rectangle 71" width="276.024" height="18.792" transform="translate(4518.771 -1855.218)" fill="#d6d6e3"/>
      <ellipse id="Ellipse_52" data-name="Ellipse 52" cx="27.017" cy="27.017" rx="27.017" ry="27.017" transform="translate(4514.655 -1816.457)" fill="#6c63ff"/>
      <ellipse id="Ellipse_53" data-name="Ellipse 53" cx="27.017" cy="27.017" rx="27.017" ry="27.017" transform="translate(4514.655 -1816.457)" fill="#525461"/>
      <path id="Path_305" data-name="Path 305" d="M822.217,249.045a5.914,5.914,0,0,0,2.6,3.293c5.6,3.7,17.786,2.915,19.249,2.915.311,0,.719.555,1.171,1.488,2.152,4.439,5.488,17.45,5.713,20.377.3,3.543,3.591,20.121,8.981,26.3.165.189.329.366.488.53,5.286,5.311,11.487-.53,11.487-.53l.89-3.091c-.25,1.219-.53,2.64-.811,4.232-.14.8-.28,1.646-.415,2.518a96.5,96.5,0,0,0-1.262,14.859,53.9,53.9,0,0,0,.232,5.414c.049.5.1.994.171,1.476a51.7,51.7,0,0,1,.4,6.609c-.049,13.121-3.4,29.444-3.4,29.444l.128-.043c-.079.409-.128.61-.128.61l.2-.061q-.14.909-.268,1.86c-1.134,8.231-1.786,18.475-2.1,24.389a48.835,48.835,0,0,0,.415,9.341l5.951,41.894v19.511a34.453,34.453,0,0,0,1.073,8.768c1.939,7.372.341,33.1-.555,45.309-.25,3.329-.445,5.658-.5,6.329v.2l.171-.067v.213a3.448,3.448,0,0,1,.793-.232c-2.36,3.658-6.634,9.707-9.92,10.725a10.408,10.408,0,0,0-4.957,3.286l-.085.116-.122.171a3.659,3.659,0,0,0-.713,1.866,2.055,2.055,0,0,1-.11-.36c-.25,1.36.567,2.6,3.134,3.207a21.1,21.1,0,0,0,4.542.366c8.9,0,24.7-2.738,26.444-5.683V526.435l.287.091v.091l1.091.36,2.994-10.048c3.591-2.658.61-50.236,0-61.168-.549-9.963,5.616-49.6,6.707-56.577l-.146-.177.165-1.018a4.331,4.331,0,0,1,.61.537,7.969,7.969,0,0,1,.933,1.378,18.436,18.436,0,0,1,1.323,2.732c6.024,15.024,8.737,57.985,8.737,61.839v40.4a42.072,42.072,0,0,0,1.646,11.786,50.545,50.545,0,0,1,1.28,6.134c.128.811.238,1.616.341,2.384s.207,1.646.287,2.366a4.927,4.927,0,0,0,.061.543,1.067,1.067,0,0,1,0,.25c.165,1.591.25,2.634.25,2.634a.611.611,0,0,1,.122-.238l.031.384a.823.823,0,0,1,.238-.378,5.771,5.771,0,0,1,.8-.659v5.134l-.146-.11v.884c6.207,4.683,16.31,6.1,24.066,6.042,5.03,0,9.1-.61,10.518-1.317,2.024-.994.915-3.311-.927-5.085-1.427-1.378-3.286-2.439-4.463-2.3-1.963.213-8.676-7.39-12.195-11.554l.4-.177.561-.244V453.987s.9-26.6,3.591-52.9a93.582,93.582,0,0,0-4.6-39.242l-.085-.25.817.128c.866.134,1.329.213,1.329.213a5.068,5.068,0,0,0-.055-.61h.055s-1.049-11.408-1.061-25.737c0-16.243,1.372-36.047,7.048-47.254,3.268-6.451,4.36-11.585,4.268-15.633a16.353,16.353,0,0,0-2.921-10,7.926,7.926,0,0,0-3.36-2.658l-.116-.067h-.061a8.354,8.354,0,0,0-3.085-.61H926.181a8.189,8.189,0,0,1-4.049-1.067l-4.8-2.719c-1.6-3.494-1.829-7.823-1.488-11.884,0-.323.061-.646.091-.963l.348-.366c.268-.287.518-.61.762-.884a6.788,6.788,0,0,1-.055.719c-.061.384-.165.61-.329.658,2.622-.341,5.549-.86,7.158-2.884.067-.079.128-.165.189-.25a13.066,13.066,0,0,0,1.177-2.439,7.085,7.085,0,0,1,.9-1.634c.4-.524.927-.951,1.36-1.451l.073-.085c1.543-1.829,1.628-4.451,1.646-6.841.031-5.8-.14-12.195-4.024-16.548-3.225-3.622-8.372-4.994-13.255-5.152s-9.756.719-14.634.744c-3.317,0-7.317-.055-9.146,2.689-.9,1.348-1.006,3.11-1.982,4.4-.561.744-1.421,1.384-1.469,2.311a2.372,2.372,0,0,0,.317,1.219v.043a8.626,8.626,0,0,0,6.317,4.238,15.737,15.737,0,0,0-1.219,1.683,16.024,16.024,0,0,0-2.439,8.536,9.995,9.995,0,0,0,.037,1.049,16.115,16.115,0,0,0,5.109,10.737c-.049.341-.1.683-.152,1.018l.11.1q.518.469,1.079.89l.134.1v.61a10.212,10.212,0,0,1-.037,1.061c-.037.348,0,.561-.037.841l-.079-.067-5.957-4.975-9.579-8.865s-23.95-17.432-25.151-9.146a5.969,5.969,0,0,0,1.14,4.134c4.4,6.707,19.511,12.414,19.511,12.414a127.748,127.748,0,0,1,15.042,19.8c-.213.116-.427.226-.652.329-5.366,2.494-13.195,1.439-13.195,1.439-9.042,1.408-9.859,11.317-9.811,15.322v.829l-12-28.176-.037-.085a5.933,5.933,0,0,0-4.488-3.524C840.594,245.936,820.54,243.125,822.217,249.045Zm50.236,273.768a5.232,5.232,0,0,1,.53-.1l-.055.085Z" transform="translate(3985.51 -2260.933)" fill="url(#linear-gradient)"/>
      <path id="Path_306" data-name="Path 306" d="M993.852,716.43s11.365,14.286,13.993,13.993,8.744,5.536,5.25,7.317-23.609,2.915-33.535-4.664v-11.42Z" transform="translate(3924.065 -2460.311)" fill="#aca9c9"/>
      <path id="Path_307" data-name="Path 307" d="M897.878,717.86s-6.707,11.951-11.365,13.414-8.744,6.707-2.622,8.164,27.987-1.75,30.023-5.25V718.732Z" transform="translate(3962.609 -2460.869)" fill="#aca9c9"/>
      <path id="Path_308" data-name="Path 308" d="M894.692,495.942l5.792,41.327v19.213a34.437,34.437,0,0,0,1.049,8.646c1.89,7.274.335,32.651-.543,44.693-.287,3.927-.506,6.439-.506,6.439,3.786-1.75,19.822,3.786,19.822,3.786l1.622-5.518,1.293-4.39c3.5-2.622.61-49.553,0-60.363-.4-7.384,2.9-31.322,5.006-45.669.61-4.055,1.1-7.317,1.4-9.28.189-1.219.293-1.9.293-1.9a6.384,6.384,0,0,1,1.573,1.9,18.246,18.246,0,0,1,1.287,2.695c5.866,14.822,8.536,57.2,8.536,60.973v39.852a42.024,42.024,0,0,0,1.6,11.628,60.968,60.968,0,0,1,1.579,8.4c.415,3.164.61,5.713.61,5.713.293-1.75,18.365-9.622,18.365-9.622V548s.872-26.218,3.5-52.181a93.094,93.094,0,0,0-3.353-35.108c-.726-2.482-1.451-4.585-2.079-6.25-1.067-2.835-1.829-4.4-1.829-4.4H900.18c-1,.189-1.829,2.2-2.579,5.256-.488,2.049-.915,4.561-1.286,7.317-1.1,8.115-1.738,18.219-2.043,24.06a48.7,48.7,0,0,0,.421,9.25Z" transform="translate(3957.374 -2356.354)" fill="#767b9b"/>
      <g id="Group_17" data-name="Group 17" transform="translate(4858.005 -1906.112)" opacity="0.1">
        <path id="Path_309" data-name="Path 309" d="M995.022,614.767v-66.46s.872-26.218,3.5-52.181a90.9,90.9,0,0,0-7.317-45.766h1.165a91.431,91.431,0,0,1,7.317,45.766c-2.591,25.944-3.5,52.181-3.5,52.181v66.46s-18.072,7.872-18.365,9.622a8.728,8.728,0,0,0-.091-1.061C981.669,620.59,995.022,614.767,995.022,614.767Z" transform="translate(-933.226 -450.36)"/>
        <path id="Path_310" data-name="Path 310" d="M906.344,722.33a4.526,4.526,0,0,0-1.6.329v-.293a10.413,10.413,0,0,1,1.6-.037Z" transform="translate(-904.74 -556.496)"/>
        <path id="Path_311" data-name="Path 311" d="M938.325,637.822c3.5-2.622.61-49.553,0-60.363s6.707-56.839,6.707-56.839a5.085,5.085,0,0,1,1.006,1.037c-1.073,6.878-7.073,45.98-6.542,55.8.61,10.786,3.5,57.717,0,60.363l-2.915,9.908-1.061-.354Z" transform="translate(-916.753 -477.78)"/>
      </g>
      <path id="Path_312" data-name="Path 312" d="M879.572,309.259l-6.1,21.572s-6.414,6.1-11.658,0-8.475-22.444-8.792-25.944-4.957-21.572-6.707-21.572-19.237,1.165-21.28-6.1c-1.634-5.841,17.889-3.049,25.706-1.738a5.792,5.792,0,0,1,4.372,3.475L867.1,307.583S873.451,300.223,879.572,309.259Z" transform="translate(3984.408 -2287.508)" fill="#f7c4a7"/>
      <path id="Path_313" data-name="Path 313" d="M958.364,249.82s-7.579,21.279,2.043,28.858S926,288.3,926,288.3l5.975-5.683s4.225-16.761,1.311-30.755Z" transform="translate(3944.968 -2278.207)" fill="#f7c4a7"/>
      <path id="Path_314" data-name="Path 314" d="M936.394,294.633s7.725-1.9,7.725-3.933l6.847,3.933h17.2s12.536,6.994,2.042,27.987-5.829,72.558-5.829,72.558-37.309-6.707-68.21,3.5c0,0,4.664-23.029,2.914-36.145S902,331.052,902,331.052l2.622-11.079s-.146-10.365-10.932-5.1c0,0-1.6-15.012,9.475-16.761,0,0,12.8,1.75,16.615-4.664C919.779,293.468,928.235,298.425,936.394,294.633Z" transform="translate(3957.61 -2294.161)" opacity="0.1"/>
      <path id="Path_315" data-name="Path 315" d="M936.393,293.683s7.725-1.9,7.725-3.933l5.018,2.884a7.927,7.927,0,0,0,3.939,1.049h12.03a7.927,7.927,0,0,1,6.445,3.28c2.762,3.884,5.238,11.542-1.342,24.706-10.493,20.987-5.829,72.558-5.829,72.558s-37.309-6.707-68.21,3.5c0,0,4.664-23.029,2.914-36.145S902,330.145,902,330.145l2.622-11.079s-.146-10.365-10.932-5.1c0,0-1.561-14.6,9.018-16.682a2.988,2.988,0,0,1,.9-.061c2.262.238,12.8,1,16.182-4.713C919.778,292.512,928.235,297.469,936.393,293.683Z" transform="translate(3957.61 -2293.79)" fill="#cbcdda"/>
      <path id="Path_316" data-name="Path 316" d="M982.027,325.034s-9.329,5.829-24.487,0c0,0-16.615-6.1-21.865-18.072S962.2,309,962.2,309s6.707,0,8.744-1.457S987.27,318.62,982.027,325.034Z" transform="translate(3941.421 -2298.619)" opacity="0.1"/>
      <path id="Path_317" data-name="Path 317" d="M958.3,298.309s-9.329,5.829-24.487,0c0,0-16.615-6.1-21.865-18.072s-17.487-25.09-17.487-25.09-21.28-8.164-20.121-16.322,24.487,9.036,24.487,9.036l9.329,8.744,30.316,25.651s6.707,0,8.744-1.457S963.544,291.895,958.3,298.309Z" transform="translate(3965.147 -2273.058)" fill="#f7c4a7"/>
      <path id="Path_318" data-name="Path 318" d="M937.49,253.293l25.066-2.043a57.534,57.534,0,0,0-2.616,11.871,16.018,16.018,0,0,1-22.438.61,28.492,28.492,0,0,0-.012-10.439Z" transform="translate(3940.484 -2278.765)" opacity="0.1"/>
      <ellipse id="Ellipse_54" data-name="Ellipse 54" cx="16.03" cy="16.03" rx="16.03" ry="16.03" transform="translate(4873.168 -2043.685)" fill="#f7c4a7"/>
      <path id="Path_319" data-name="Path 319" d="M952.569,238.543c-.939-1.549.97-3.567.341-5.262-.579-1.561-2.884-1.829-3.658-3.286-.61-1.177,0-2.622-.244-3.921-.348-1.677-2.152-2.719-3.866-2.8a13.793,13.793,0,0,0-4.994,1.1,19.172,19.172,0,0,1-8.225,1.268,8.624,8.624,0,0,1-6.792-4.311,2.44,2.44,0,0,1-.311-1.183c.049-.915.89-1.543,1.433-2.274.951-1.274,1.061-3.012,1.927-4.341,1.768-2.707,5.652-2.64,8.884-2.652,4.756,0,9.487-.89,14.243-.732s9.756,1.506,12.908,5.079c3.78,4.3,3.951,10.591,3.921,16.322,0,2.36-.1,4.927-1.6,6.75-.439.53-.976.969-1.4,1.512-.915,1.219-1.158,2.78-2.018,4.018-1.524,2.2-4.5,2.738-7.152,3.091.78-.1.134-5.329,0-5.811C955.453,238.708,954.9,238.756,952.569,238.543Z" transform="translate(3945.428 -2262.717)" opacity="0.1"/>
      <path id="Path_320" data-name="Path 320" d="M952.569,237.593c-.939-1.549.97-3.567.341-5.262-.579-1.561-2.884-1.829-3.658-3.286-.61-1.177,0-2.622-.244-3.921-.348-1.677-2.152-2.719-3.866-2.8a13.794,13.794,0,0,0-4.994,1.1,19.172,19.172,0,0,1-8.225,1.268,8.624,8.624,0,0,1-6.792-4.311,2.44,2.44,0,0,1-.311-1.183c.049-.915.89-1.543,1.433-2.274.951-1.274,1.061-3.012,1.927-4.341,1.768-2.707,5.652-2.64,8.884-2.652,4.756,0,9.487-.89,14.243-.732s9.756,1.506,12.908,5.079c3.78,4.3,3.951,10.591,3.921,16.322,0,2.36-.1,4.927-1.6,6.75-.439.53-.976.969-1.4,1.512-.915,1.219-1.158,2.78-2.018,4.018-1.524,2.2-4.5,2.738-7.152,3.091.78-.1.134-5.329,0-5.811C955.453,237.727,954.9,237.8,952.569,237.593Z" transform="translate(3945.428 -2262.346)" fill="#281c1c"/>
      <path id="Path_321" data-name="Path 321" d="M1002.052,327.3s-7.872-20.408-13.993-20.987,11.658,0,11.658,0l5.829,10.493Z" transform="translate(3921.249 -2300.155)" opacity="0.1"/>
      <path id="Path_322" data-name="Path 322" d="M1003.012,327.3s-7.872-20.408-13.993-20.987,11.658,0,11.658,0l5.829,10.493Z" transform="translate(3920.874 -2300.155)" fill="#cbcdda" opacity="0.78"/>
      <path id="Path_323" data-name="Path 323" d="M976.65,720.642c.415,3.164.61,5.713.61,5.713.293-1.75,18.365-9.622,18.365-9.622V712a8.046,8.046,0,0,0-1.378.067c-3.506.47-6.756,2.171-9.756,3.988A89.009,89.009,0,0,1,976.65,720.642Z" transform="translate(3925.201 -2458.579)" fill="#618fd8"/>
      <path id="Path_324" data-name="Path 324" d="M976.65,720.642c.415,3.164.61,5.713.61,5.713.293-1.75,18.365-9.622,18.365-9.622V712a8.046,8.046,0,0,0-1.378.067c-3.506.47-6.756,2.171-9.756,3.988A89.009,89.009,0,0,1,976.65,720.642Z" transform="translate(3925.201 -2458.579)" fill="#787b8f"/>
      <path id="Path_325" data-name="Path 325" d="M904.5,718.274c3.786-1.75,19.822,3.786,19.822,3.786l1.622-5.518c-2.8-.567-5.579-1.274-8.311-2.116a27.648,27.648,0,0,1-3.732-1.378,25,25,0,0,0-2.488-1.158,12.9,12.9,0,0,0-6.414-.055C904.719,715.762,904.5,718.274,904.5,718.274Z" transform="translate(3953.359 -2458.369)" fill="#618fd8"/>
      <path id="Path_326" data-name="Path 326" d="M904.5,718.274c3.786-1.75,19.822,3.786,19.822,3.786l1.622-5.518c-2.8-.567-5.579-1.274-8.311-2.116a27.648,27.648,0,0,1-3.732-1.378,25,25,0,0,0-2.488-1.158,12.9,12.9,0,0,0-6.414-.055C904.719,715.762,904.5,718.274,904.5,718.274Z" transform="translate(3953.359 -2458.369)" fill="#787b8f"/>
      <path id="Path_327" data-name="Path 327" d="M1012.835,746.9a1.744,1.744,0,0,0,1-1.158,1.713,1.713,0,0,1-1,2.03c-3.5,1.75-23.609,2.915-33.535-4.664v-.872C989.226,749.819,1009.335,748.654,1012.835,746.9Z" transform="translate(3924.167 -2470.384)" fill="#fff" opacity="0.4"/>
      <path id="Path_328" data-name="Path 328" d="M883.641,748.44c6.1,1.457,27.987-1.75,30.023-5.25v.872c-2.043,3.5-23.9,6.707-30.023,5.25-2.5-.61-3.3-1.829-3.049-3.164C880.787,747.135,881.7,747.952,883.641,748.44Z" transform="translate(3962.707 -2470.755)" fill="#fff" opacity="0.4"/>
      <path id="Path_329" data-name="Path 329" d="M928.021,402.949s-6.414-2.043-8.164,0-16.707,6.829-16.707,6.829" transform="translate(3953.886 -2337.614)" opacity="0.1"/>
      <rect id="Rectangle_72" data-name="Rectangle 72" width="31.188" height="0.659" transform="translate(4840.519 -2014.759) rotate(180)" fill="#8ed16f"/>
      <rect id="Rectangle_73" data-name="Rectangle 73" width="31.188" height="0.659" transform="translate(4840.519 -2014.101) rotate(180)" fill="#8ed16f"/>
      <rect id="Rectangle_74" data-name="Rectangle 74" width="31.188" height="0.659" transform="translate(4840.519 -2014.101) rotate(180)" opacity="0.1"/>
      <rect id="Rectangle_75" data-name="Rectangle 75" width="31.188" height="0.659" transform="translate(4840.519 -2013.442) rotate(180)" fill="#8ed16f"/>
      <rect id="Rectangle_76" data-name="Rectangle 76" width="31.188" height="0.659" transform="translate(4840.519 -2012.79) rotate(180)" fill="#8ed16f"/>
      <rect id="Rectangle_77" data-name="Rectangle 77" width="31.188" height="0.659" transform="translate(4840.519 -2012.79) rotate(180)" opacity="0.1"/>
      <rect id="Rectangle_78" data-name="Rectangle 78" width="31.188" height="0.659" transform="translate(4840.519 -2012.131) rotate(180)" fill="#8ed16f"/>
      <rect id="Rectangle_79" data-name="Rectangle 79" width="31.188" height="0.659" transform="translate(4840.519 -2011.479) rotate(180)" fill="#8ed16f"/>
      <rect id="Rectangle_80" data-name="Rectangle 80" width="31.188" height="0.659" transform="translate(4840.519 -2011.479) rotate(180)" opacity="0.1"/>
      <rect id="Rectangle_81" data-name="Rectangle 81" width="31.188" height="0.659" transform="translate(4840.519 -2010.82) rotate(180)" fill="#8ed16f"/>
      <rect id="Rectangle_82" data-name="Rectangle 82" width="31.188" height="0.659" transform="translate(4840.519 -2010.168) rotate(180)" fill="#8ed16f"/>
      <rect id="Rectangle_83" data-name="Rectangle 83" width="31.188" height="0.659" transform="translate(4840.519 -2010.168) rotate(180)" opacity="0.1"/>
      <rect id="Rectangle_84" data-name="Rectangle 84" width="31.188" height="0.659" transform="translate(4840.519 -2020.003) rotate(180)" fill="#8ed16f"/>
      <rect id="Rectangle_85" data-name="Rectangle 85" width="31.188" height="0.659" transform="matrix(-0.769, -0.639, 0.639, -0.769, 4855.37, -2015.651)" fill="#8ed16f"/>
      <rect id="Rectangle_86" data-name="Rectangle 86" width="31.188" height="0.659" transform="matrix(-0.769, -0.639, 0.639, -0.769, 4833.508, -2026.143)" fill="#8ed16f"/>
      <rect id="Rectangle_87" data-name="Rectangle 87" width="31.188" height="0.659" transform="translate(4840.519 -2019.351) rotate(180)" fill="#8ed16f"/>
      <rect id="Rectangle_88" data-name="Rectangle 88" width="31.188" height="0.659" transform="translate(4840.519 -2019.351) rotate(180)" opacity="0.1"/>
      <rect id="Rectangle_89" data-name="Rectangle 89" width="31.188" height="0.659" transform="translate(4840.519 -2018.686) rotate(180)" fill="#8ed16f"/>
      <rect id="Rectangle_90" data-name="Rectangle 90" width="31.188" height="0.659" transform="translate(4840.519 -2018.033) rotate(180)" fill="#8ed16f"/>
      <rect id="Rectangle_91" data-name="Rectangle 91" width="31.188" height="0.659" transform="translate(4840.519 -2018.033) rotate(180)" opacity="0.1"/>
      <rect id="Rectangle_92" data-name="Rectangle 92" width="31.188" height="0.659" transform="translate(4840.519 -2017.381) rotate(180)" fill="#8ed16f"/>
      <rect id="Rectangle_93" data-name="Rectangle 93" width="31.188" height="0.659" transform="translate(4840.519 -2016.723) rotate(180)" fill="#8ed16f"/>
      <rect id="Rectangle_94" data-name="Rectangle 94" width="31.188" height="0.659" transform="translate(4840.519 -2016.723) rotate(180)" opacity="0.1"/>
      <rect id="Rectangle_95" data-name="Rectangle 95" width="31.188" height="0.659" transform="translate(4840.519 -2016.07) rotate(180)" fill="#8ed16f"/>
      <rect id="Rectangle_96" data-name="Rectangle 96" width="31.188" height="0.659" transform="translate(4840.519 -2015.412) rotate(180)" fill="#8ed16f"/>
      <rect id="Rectangle_97" data-name="Rectangle 97" width="31.188" height="0.659" transform="translate(4840.519 -2015.412) rotate(180)" opacity="0.1"/>
      <rect id="Rectangle_98" data-name="Rectangle 98" width="11.365" height="22.151" transform="translate(4816.552 -1987.77) rotate(-169.48)" fill="#8ed16f"/>
      <ellipse id="Ellipse_55" data-name="Ellipse 55" cx="4.664" cy="2.329" rx="4.664" ry="2.329" transform="translate(4810.001 -1995.465) rotate(-79.48)" fill="#8ed16f"/>
      <ellipse id="Ellipse_56" data-name="Ellipse 56" cx="4.664" cy="2.329" rx="4.664" ry="2.329" transform="translate(4810.001 -1995.465) rotate(-79.48)" opacity="0.1"/>
      <rect id="Rectangle_99" data-name="Rectangle 99" width="11.365" height="22.151" transform="translate(4818.464 -1941.8) rotate(-169.48)" fill="#8ed16f"/>
      <ellipse id="Ellipse_57" data-name="Ellipse 57" cx="4.664" cy="2.329" rx="4.664" ry="2.329" transform="translate(4811.907 -1949.5) rotate(-79.48)" fill="#8ed16f"/>
      <ellipse id="Ellipse_58" data-name="Ellipse 58" cx="4.664" cy="2.329" rx="4.664" ry="2.329" transform="translate(4811.907 -1949.5) rotate(-79.48)" opacity="0.1"/>
      <rect id="Rectangle_100" data-name="Rectangle 100" width="11.365" height="22.151" transform="matrix(0.476, -0.879, 0.879, 0.476, 4761.463, -2046.87)" fill="#8ed16f"/>
      <ellipse id="Ellipse_59" data-name="Ellipse 59" cx="2.335" cy="4.676" rx="2.335" ry="4.676" transform="translate(4770.583 -2046.358) rotate(-61.39)" fill="#8ed16f"/>
      <ellipse id="Ellipse_60" data-name="Ellipse 60" cx="2.335" cy="4.676" rx="2.335" ry="4.676" transform="translate(4770.583 -2046.358) rotate(-61.39)" opacity="0.1"/>
      <rect id="Rectangle_101" data-name="Rectangle 101" width="11.365" height="22.151" transform="matrix(0.476, -0.879, 0.879, 0.476, 4718.686, -1849.609)" fill="#8ed16f"/>
      <ellipse id="Ellipse_61" data-name="Ellipse 61" cx="2.329" cy="4.664" rx="2.329" ry="4.664" transform="matrix(0.476, -0.879, 0.879, 0.476, 4725.857, -1849.373)" fill="#8ed16f"/>
      <ellipse id="Ellipse_62" data-name="Ellipse 62" cx="2.329" cy="4.664" rx="2.329" ry="4.664" transform="matrix(0.476, -0.879, 0.879, 0.476, 4725.857, -1849.373)" opacity="0.1"/>
      <rect id="Rectangle_102" data-name="Rectangle 102" width="11.365" height="22.151" transform="matrix(0.476, -0.879, 0.879, 0.476, 4692.514, -2012.396)" fill="#8ed16f"/>
      <ellipse id="Ellipse_63" data-name="Ellipse 63" cx="2.329" cy="4.664" rx="2.329" ry="4.664" transform="matrix(0.476, -0.879, 0.879, 0.476, 4699.68, -2012.169)" fill="#8ed16f"/>
      <ellipse id="Ellipse_64" data-name="Ellipse 64" cx="2.329" cy="4.664" rx="2.329" ry="4.664" transform="matrix(0.476, -0.879, 0.879, 0.476, 4699.68, -2012.169)" opacity="0.1"/>
      <rect id="Rectangle_103" data-name="Rectangle 103" width="11.365" height="22.151" transform="matrix(0.476, -0.879, 0.879, 0.476, 4725.317, -2046.873)" fill="#8ed16f"/>
      <ellipse id="Ellipse_65" data-name="Ellipse 65" cx="2.329" cy="4.664" rx="2.329" ry="4.664" transform="matrix(0.476, -0.879, 0.879, 0.476, 4732.483, -2046.646)" fill="#8ed16f"/>
      <ellipse id="Ellipse_66" data-name="Ellipse 66" cx="2.329" cy="4.664" rx="2.329" ry="4.664" transform="matrix(0.476, -0.879, 0.879, 0.476, 4732.483, -2046.646)" opacity="0.1"/>
      <rect id="Rectangle_104" data-name="Rectangle 104" width="11.365" height="22.151" transform="matrix(0.994, -0.109, 0.109, 0.994, 4752.181, -2014.951)" fill="#8ed16f"/>
      <ellipse id="Ellipse_67" data-name="Ellipse 67" cx="2.329" cy="4.664" rx="2.329" ry="4.664" transform="matrix(0.994, -0.109, 0.109, 0.994, 4756.061, -2008.923)" fill="#8ed16f"/>
      <ellipse id="Ellipse_68" data-name="Ellipse 68" cx="2.329" cy="4.664" rx="2.329" ry="4.664" transform="matrix(0.994, -0.109, 0.109, 0.994, 4756.061, -2008.923)" opacity="0.1"/>
      <rect id="Rectangle_105" data-name="Rectangle 105" width="11.365" height="22.151" transform="matrix(0.994, -0.109, 0.109, 0.994, 4829.641, -1894.371)" fill="#8ed16f"/>
      <ellipse id="Ellipse_69" data-name="Ellipse 69" cx="2.329" cy="4.664" rx="2.329" ry="4.664" transform="matrix(0.994, -0.109, 0.109, 0.994, 4833.527, -1888.344)" fill="#8ed16f"/>
      <ellipse id="Ellipse_70" data-name="Ellipse 70" cx="2.329" cy="4.664" rx="2.329" ry="4.664" transform="matrix(0.994, -0.109, 0.109, 0.994, 4833.527, -1888.344)" opacity="0.1"/>
      <rect id="Rectangle_106" data-name="Rectangle 106" width="11.365" height="22.151" transform="matrix(0.476, -0.879, 0.879, 0.476, 4713.827, -1959.415)" fill="#8ed16f"/>
      <ellipse id="Ellipse_71" data-name="Ellipse 71" cx="2.329" cy="4.664" rx="2.329" ry="4.664" transform="matrix(0.476, -0.879, 0.879, 0.476, 4720.989, -1959.18)" fill="#8ed16f"/>
      <ellipse id="Ellipse_72" data-name="Ellipse 72" cx="2.329" cy="4.664" rx="2.329" ry="4.664" transform="matrix(0.476, -0.879, 0.879, 0.476, 4720.989, -1959.18)" opacity="0.1"/>
      <rect id="Rectangle_107" data-name="Rectangle 107" width="11.365" height="22.151" transform="matrix(0.476, -0.879, 0.879, 0.476, 4664.665, -1973.456)" fill="#8ed16f"/>
      <ellipse id="Ellipse_73" data-name="Ellipse 73" cx="2.335" cy="4.676" rx="2.335" ry="4.676" transform="translate(4673.436 -1972.595) rotate(-61.39)" fill="#8ed16f"/>
      <ellipse id="Ellipse_74" data-name="Ellipse 74" cx="2.335" cy="4.676" rx="2.335" ry="4.676" transform="translate(4673.436 -1972.595) rotate(-61.39)" opacity="0.1"/>
      <rect id="Rectangle_108" data-name="Rectangle 108" width="11.365" height="22.151" transform="matrix(0.476, -0.879, 0.879, 0.476, 4648.919, -1737.061)" fill="#8ed16f"/>
      <ellipse id="Ellipse_75" data-name="Ellipse 75" cx="2.329" cy="4.664" rx="2.329" ry="4.664" transform="matrix(0.476, -0.879, 0.879, 0.476, 4656.085, -1736.831)" fill="#8ed16f"/>
      <ellipse id="Ellipse_76" data-name="Ellipse 76" cx="2.329" cy="4.664" rx="2.329" ry="4.664" transform="matrix(0.476, -0.879, 0.879, 0.476, 4656.085, -1736.831)" opacity="0.1"/>
      <rect id="Rectangle_109" data-name="Rectangle 109" width="11.365" height="22.151" transform="translate(4638.082 -1732.027) rotate(-79.49)" fill="#8ed16f"/>
      <rect id="Rectangle_110" data-name="Rectangle 110" width="11.365" height="22.151" transform="translate(4638.082 -1732.027) rotate(-79.49)" opacity="0.05"/>
      <ellipse id="Ellipse_77" data-name="Ellipse 77" cx="2.329" cy="4.664" rx="2.329" ry="4.664" transform="translate(4644.976 -1734.013) rotate(-79.49)" fill="#8ed16f"/>
      <ellipse id="Ellipse_78" data-name="Ellipse 78" cx="2.329" cy="4.664" rx="2.329" ry="4.664" transform="translate(4644.976 -1734.013) rotate(-79.49)" opacity="0.1"/>
      <rect id="Rectangle_111" data-name="Rectangle 111" width="11.365" height="22.151" transform="translate(4640.124 -1725.326) rotate(-79.49)" fill="#8ed16f"/>
      <ellipse id="Ellipse_79" data-name="Ellipse 79" cx="2.329" cy="4.664" rx="2.329" ry="4.664" transform="translate(4647.01 -1727.312) rotate(-79.49)" fill="#8ed16f"/>
      <ellipse id="Ellipse_80" data-name="Ellipse 80" cx="2.329" cy="4.664" rx="2.329" ry="4.664" transform="translate(4647.01 -1727.312) rotate(-79.49)" opacity="0.1"/>
      <rect id="Rectangle_112" data-name="Rectangle 112" width="11.365" height="22.151" transform="matrix(0.476, -0.879, 0.879, 0.476, 4671.9, -1708.331)" fill="#8ed16f"/>
      <ellipse id="Ellipse_81" data-name="Ellipse 81" cx="2.329" cy="4.664" rx="2.329" ry="4.664" transform="matrix(0.476, -0.879, 0.879, 0.476, 4679.071, -1708.102)" fill="#8ed16f"/>
      <ellipse id="Ellipse_82" data-name="Ellipse 82" cx="2.329" cy="4.664" rx="2.329" ry="4.664" transform="matrix(0.476, -0.879, 0.879, 0.476, 4679.071, -1708.102)" opacity="0.1"/>
      <rect id="Rectangle_113" data-name="Rectangle 113" width="11.365" height="22.151" transform="translate(4661.067 -1703.305) rotate(-79.49)" fill="#8ed16f"/>
      <rect id="Rectangle_114" data-name="Rectangle 114" width="11.365" height="22.151" transform="translate(4661.067 -1703.305) rotate(-79.49)" opacity="0.05"/>
      <ellipse id="Ellipse_83" data-name="Ellipse 83" cx="2.329" cy="4.664" rx="2.329" ry="4.664" transform="translate(4667.955 -1705.291) rotate(-79.49)" fill="#8ed16f"/>
      <ellipse id="Ellipse_84" data-name="Ellipse 84" cx="2.329" cy="4.664" rx="2.329" ry="4.664" transform="translate(4667.955 -1705.291) rotate(-79.49)" opacity="0.1"/>
      <rect id="Rectangle_115" data-name="Rectangle 115" width="11.365" height="22.151" transform="translate(4663.106 -1696.597) rotate(-79.49)" fill="#8ed16f"/>
      <ellipse id="Ellipse_85" data-name="Ellipse 85" cx="2.329" cy="4.664" rx="2.329" ry="4.664" transform="translate(4670 -1698.583) rotate(-79.49)" fill="#8ed16f"/>
      <ellipse id="Ellipse_86" data-name="Ellipse 86" cx="2.329" cy="4.664" rx="2.329" ry="4.664" transform="translate(4670 -1698.583) rotate(-79.49)" opacity="0.1"/>
      <rect id="Rectangle_116" data-name="Rectangle 116" width="11.365" height="22.151" transform="matrix(0.476, -0.879, 0.879, 0.476, 4706.379, -1726.846)" fill="#8ed16f"/>
      <ellipse id="Ellipse_87" data-name="Ellipse 87" cx="2.329" cy="4.664" rx="2.329" ry="4.664" transform="matrix(0.476, -0.879, 0.879, 0.476, 4713.539, -1726.619)" fill="#8ed16f"/>
      <ellipse id="Ellipse_88" data-name="Ellipse 88" cx="2.329" cy="4.664" rx="2.329" ry="4.664" transform="matrix(0.476, -0.879, 0.879, 0.476, 4713.539, -1726.619)" opacity="0.1"/>
      <rect id="Rectangle_117" data-name="Rectangle 117" width="11.365" height="22.151" transform="translate(4695.542 -1721.816) rotate(-79.49)" fill="#8ed16f"/>
      <rect id="Rectangle_118" data-name="Rectangle 118" width="11.365" height="22.151" transform="translate(4695.542 -1721.816) rotate(-79.49)" opacity="0.05"/>
      <ellipse id="Ellipse_89" data-name="Ellipse 89" cx="2.329" cy="4.664" rx="2.329" ry="4.664" transform="translate(4702.43 -1723.802) rotate(-79.49)" fill="#8ed16f"/>
      <ellipse id="Ellipse_90" data-name="Ellipse 90" cx="2.329" cy="4.664" rx="2.329" ry="4.664" transform="translate(4702.43 -1723.802) rotate(-79.49)" opacity="0.1"/>
      <rect id="Rectangle_119" data-name="Rectangle 119" width="11.365" height="22.151" transform="translate(4697.582 -1715.109) rotate(-79.49)" fill="#8ed16f"/>
      <ellipse id="Ellipse_91" data-name="Ellipse 91" cx="2.329" cy="4.664" rx="2.329" ry="4.664" transform="translate(4704.476 -1717.094) rotate(-79.49)" fill="#8ed16f"/>
      <ellipse id="Ellipse_92" data-name="Ellipse 92" cx="2.329" cy="4.664" rx="2.329" ry="4.664" transform="translate(4704.476 -1717.094) rotate(-79.49)" opacity="0.1"/>
    </g>
  </g>
</svg>
