<svg xmlns="http://www.w3.org/2000/svg" width="925.455" height="615.539" viewBox="0 0 925.455 615.539">
  <g id="payment" transform="translate(-4289 1045.068)">
    <path id="Path_444" data-name="Path 444" d="M1006.64,544.3c12.81-3.87,24.8-13.24,28-26.24,3.66-14.94-4.78-30-6-45.34-3.94-50.26,67.56-85.72,57.36-135.09-4.05-19.63-20.42-34.07-36.55-46-25.84-19.05-54.51-35.88-86.26-40.63-48.19-7.22-98.54,14-145.38.59-37.78-10.82-66.69-42.53-104.21-54.23-28.56-8.91-59.33-5.4-89-1.79-16,1.94-32.76,4.18-45.67,13.78-24,17.87-25.51,53.16-41.58,78.45-24.82,39-79.24,46.66-124.87,39.08s-89.94-26.24-136.17-24.72c-9.88.33-20,1.67-28.62,6.52-10.48,5.89-17.56,16.27-23.82,26.54a429.449,429.449,0,0,0-62.27,213.39c-.27,12.95.19,26.46,6.28,37.89,7.7,14.46,23.09,23.11,38.41,28.93,36.79,14,77.43,16.29,113.48,32.08,34.77,15.23,62.93,41.94,93.21,64.83a496.49,496.49,0,0,0,204.49,91.07c17.39,3.36,35.44,5.76,52.72,1.88,19.91-4.47,37.07-16.88,52.5-30.24,41.05-35.54,73.95-79.39,111.78-118.34a636.4,636.4,0,0,1,84.92-73.23c14-10.09,28.88-22.07,44.48-29.53C978.15,547.134,991.54,548.854,1006.64,544.3Z" transform="translate(4127.457 -1236.82)" fill="#ebf3fa"/>
    <g id="Group_38" data-name="Group 38" transform="translate(-9.536 195.714)">
      <path id="Path_968" data-name="Path 968" d="M636.947,207.411h-2.625V135.394A41.681,41.681,0,0,0,592.64,93.713H440.059a41.681,41.681,0,0,0-41.682,41.681V530.485a41.681,41.681,0,0,0,41.681,41.681h152.58a41.681,41.681,0,0,0,41.681-41.681V258.675h2.625Z" transform="translate(4227.017 -1255.242)" fill="#3f3d56"/>
      <path id="Path_969" data-name="Path 969" d="M629.878,136.138V536.811a31.612,31.612,0,0,1-31.6,31.608H442.565a31.619,31.619,0,0,1-31.622-31.613V136.138a31.617,31.617,0,0,1,31.621-31.607h18.889a15.032,15.032,0,0,0,13.906,20.694h88.774a15.032,15.032,0,0,0,13.906-20.694h20.233a31.612,31.612,0,0,1,31.607,31.6Z" transform="translate(4222.911 -1258.777)" fill="#fff"/>
      <path id="Path_39" data-name="Path 39" d="M610.411,475.16H472.043a2.565,2.565,0,0,1-2.562-2.562V438.276a2.566,2.566,0,0,1,2.562-2.562H610.411a2.566,2.566,0,0,1,2.562,2.562V472.6a2.566,2.566,0,0,1-2.562,2.562ZM472.043,436.738a1.539,1.539,0,0,0-1.538,1.538V472.6a1.539,1.539,0,0,0,1.538,1.538H610.411a1.539,1.539,0,0,0,1.538-1.538V438.275a1.539,1.539,0,0,0-1.537-1.538Z" transform="translate(4203.781 -1367.007)" fill="#e6e6e6"/>
      <path id="Path_40" data-name="Path 40" d="M535.981,454.074a1.794,1.794,0,0,0,0,3.588h84.558a1.794,1.794,0,1,0,.137-3.586h-84.7Z" transform="translate(4182.634 -1373.008)" fill="#e6e6e6"/>
      <path id="Path_41" data-name="Path 41" d="M535.981,470.058a1.794,1.794,0,0,0,0,3.588h84.558a1.794,1.794,0,1,0,.137-3.586h-84.7Z" transform="translate(4182.634 -1378.231)" fill="#e6e6e6"/>
      <path id="Path_42" data-name="Path 42" d="M610.411,560.14H472.043a2.565,2.565,0,0,1-2.562-2.562V523.256a2.565,2.565,0,0,1,2.562-2.562H610.411a2.566,2.566,0,0,1,2.562,2.562v34.323a2.565,2.565,0,0,1-2.562,2.561ZM472.043,521.718a1.539,1.539,0,0,0-1.538,1.538v34.323a1.539,1.539,0,0,0,1.538,1.538H610.411a1.539,1.539,0,0,0,1.538-1.538V523.256a1.539,1.539,0,0,0-1.537-1.538Z" transform="translate(4203.781 -1394.779)" fill="#e6e6e6"/>
      <path id="Path_43" data-name="Path 43" d="M535.981,539.33a1.794,1.794,0,0,0,0,3.587h84.558a1.794,1.794,0,0,0,.059-3.587H535.981Z" transform="translate(4182.634 -1400.869)" fill="#e6e6e6"/>
      <path id="Path_44" data-name="Path 44" d="M535.981,555.318a1.794,1.794,0,0,0,0,3.587h84.558a1.794,1.794,0,1,0,.059-3.587H535.981Z" transform="translate(4182.634 -1406.094)" fill="#e6e6e6"/>
      <path id="Path_39-2" data-name="Path 39-2" d="M610.411,645.4H472.043a2.565,2.565,0,0,1-2.562-2.562V608.514a2.565,2.565,0,0,1,2.562-2.562H610.411a2.566,2.566,0,0,1,2.562,2.562v34.323a2.566,2.566,0,0,1-2.562,2.562ZM472.043,606.976a1.539,1.539,0,0,0-1.538,1.538v34.323a1.539,1.539,0,0,0,1.538,1.538H610.411a1.539,1.539,0,0,0,1.538-1.538V608.513a1.539,1.539,0,0,0-1.537-1.538Z" transform="translate(4203.781 -1422.641)" fill="#e6e6e6"/>
      <path id="Path_40-2" data-name="Path 40-2" d="M535.981,624.591a1.794,1.794,0,0,0,0,3.588h84.558a1.794,1.794,0,1,0,.137-3.586h-84.7Z" transform="translate(4182.634 -1428.732)" fill="#e6e6e6"/>
      <path id="Path_41-2" data-name="Path 41-2" d="M535.981,640.578a1.794,1.794,0,0,0,0,3.587h84.558a1.794,1.794,0,1,0,.137-3.586h-84.7Z" transform="translate(4182.634 -1433.957)" fill="#e6e6e6"/>
      <path id="Path_970" data-name="Path 970" d="M718.977,805.6H254.234c-.673,0-1.22-.315-1.22-.7s.547-.7,1.22-.7H718.978c.673,0,1.22.315,1.22.7S719.65,805.6,718.977,805.6Z" transform="translate(4274.521 -1487.426)" fill="#e6e6e6"/>
      <path id="Path_370" data-name="Path 370" d="M610.7,309.729a3.02,3.02,0,0,1-2.7-1.649,35.6,35.6,0,0,0-21.12-17.78,40.385,40.385,0,0,0-5.66-1.282l-.39-.059,20.142-62.976.341.012c39.132,10.633,61.521,42,67.45,51.354a3.025,3.025,0,0,1-1.21,4.324l-55.492,27.734A3.034,3.034,0,0,1,610.7,309.729Z" transform="translate(4167.393 -1298.468)" fill="#e6e6e6"/>
      <path id="Path_2881" data-name="Path 2881" d="M804.55,539.681a6.245,6.245,0,0,1,8.557-4.3l15-16.354,2.8,11.186-14.676,13.815a6.278,6.278,0,0,1-11.686-4.35Z" transform="translate(4094.339 -1394.235)" fill="#f7c4a7"/>
      <path id="Path_2882" data-name="Path 2882" d="M845.929,774.882h-9.164L832.4,739.527h13.531Z" transform="translate(4085.178 -1466.293)" fill="#f7c4a7"/>
      <path id="Path_2883" data-name="Path 2883" d="M841.621,787.6H823.569a11.5,11.5,0,0,0-11.5,11.5v.375h29.554Z" transform="translate(4091.825 -1482.003)" fill="#aca9c9"/>
      <path id="Path_2884" data-name="Path 2884" d="M918.455,762.511l-8.569,3.253-16.623-31.506,12.647-4.8Z" transform="translate(4065.29 -1463.002)" fill="#f7c4a7"/>
      <path id="Path_2885" data-name="Path 2885" d="M920.559,773.167l-16.877,6.406h0a11.5,11.5,0,0,0-6.672,14.837l.135.349,27.632-10.487Z" transform="translate(4064.311 -1477.286)" fill="#aca9c9"/>
      <path id="Path_2886" data-name="Path 2886" d="M877.437,617.36l7.6,40.873s20.617,57.51,19.17,58.957-21.341,6.51-20.255,3.256-23.872-52.085-23.872-52.085Z" transform="translate(4076.135 -1426.369)" fill="#767b9b"/>
      <path id="Path_2887" data-name="Path 2887" d="M833.553,507.03s-15.333,20.044-13.324,21.139,9.793,6.891,9.793,6.891l7.92-21.734Z" transform="translate(4089.217 -1390.313)" fill="#cbcdda"/>
      <path id="Path_2888" data-name="Path 2888" d="M831.847,537s-2.532,18.809-1.447,22.787.361,116.83-.362,118.638-2.895,7.957-1.808,10.851,15.914,10.128,18.085,7.6S864.4,602.1,864.4,602.1s22.426-55.7,17.362-61.127S831.847,537,831.847,537Z" transform="translate(4086.64 -1400.05)" fill="#767b9b"/>
      <circle id="Ellipse_542" data-name="Ellipse 542" cx="17.723" cy="17.723" r="17.723" transform="translate(4933.305 -1019.379)" fill="#f7c4a7"/>
      <path id="Path_2890" data-name="Path 2890" d="M846.63,382.293a12.564,12.564,0,0,1,4.039-7.432l3.231-9.879h18.99l5.292,8.3c5.722,2.465,9.963,6.373,10.124,10.981.875,3.06-2.895,100.191-3.979,103.808-.318,1.053-4.645,1.616-10.728,1.866-5.577.228-12.627.2-19.394.04-11.206-.261-21.651-.861-23.409-1.183C826.821,488.074,846.236,384.575,846.63,382.293Z" transform="translate(4085.879 -1343.892)" fill="#cbcdda"/>
      <path id="Path_2891" data-name="Path 2891" d="M874.81,567.921a6.245,6.245,0,0,0,1.229-9.5l10.481-19.561-11.484,1.049-8.192,18.413a6.278,6.278,0,0,0,7.966,9.594Z" transform="translate(4074.488 -1400.717)" fill="#f7c4a7"/>
      <path id="Path_2893" data-name="Path 2893" d="M876.35,374.61s-16.638,6.872-10.489,24.235,13.021,37.979,13.021,37.979-8.681,46.66-8.681,48.471-5.425,11.574-3.256,13.383,16.638,5.425,17,3.617a122.391,122.391,0,0,1,3.979-12.3c.724-1.447,17.723-46.66,15.551-50.638-1.6-2.928-3-29.756-3.627-43.717a22.961,22.961,0,0,0-11.97-19.331A15.907,15.907,0,0,0,876.35,374.61Z" transform="translate(4074.69 -1346.895)" fill="#cbcdda"/>
      <path id="Path_2800" data-name="Path 2800" d="M880.626,328.41a26.615,26.615,0,0,0-4.362-1.135c-5.207-1.381-8.7-6.523-7.581-11.175a5.038,5.038,0,0,0,.273-1.842c-.195-1.378-1.809-2.267-3.357-2.583a37.237,37.237,0,0,1-4.674-.778,6.321,6.321,0,0,1-4.131-4.959,9.205,9.205,0,0,1,1.567-6.174l.559,1.406a5.232,5.232,0,0,0,1.827-2.386,3.7,3.7,0,0,1,2.868,2.014c.9.462,1.027-1.436,2.02-1.716a1.983,1.983,0,0,1,1.237.269c2,.814,4.318.118,6.463-.333a27.751,27.751,0,0,1,11.29-.011,14.29,14.29,0,0,1,6.673,3,13.7,13.7,0,0,1,3.121,4.686c1.893,4.162,3.143,8.665,2.518,13.109a17.538,17.538,0,0,1-5.006,9.829c-1.429,1.439-6.093,6.457-8.649,5.6C880.067,334.153,884.412,330.159,880.626,328.41Z" transform="translate(4077.224 -1322.144)" fill="#281c1c"/>
      <circle id="Ellipse_156" data-name="Ellipse 156" cx="5.386" cy="5.386" r="5.386" transform="translate(4738.907 -987.534)" fill="#3f3d56"/>
      <path id="Path_371" data-name="Path 371" d="M493.052,307.926a3.024,3.024,0,0,1-1.414-.353l-55.171-29.106a3.029,3.029,0,0,1-1.172-4.258,122.3,122.3,0,0,1,27.6-30.951c19.053-15.1,40.725-22.676,64.411-22.549a102.249,102.249,0,0,1,26.3,3.56l.34.092-20.147,62.972-.284-.043a44.9,44.9,0,0,0-5.479-.486c-20.5-.579-29.383,13.381-32.251,19.408a2.972,2.972,0,0,1-1.764,1.555A3.05,3.05,0,0,1,493.052,307.926Z" transform="translate(4215.097 -1296.744)" fill="#3278ab"/>
      <path id="Path_372" data-name="Path 372" d="M601.436,226.483l-14.245,63.658a40.652,40.652,0,0,0-5.709-1.293l19.947-62.365Z" transform="translate(4167.179 -1298.631)" fill="#3f3d56"/>
      <path id="Path_429" data-name="Path 429" d="M544.314,255.181a10.762,10.762,0,1,1-21.524,0c0-.341.016-.677.047-1.009a10.762,10.762,0,0,1,21.476,1.009Z" transform="translate(4159.583 -1165.375)" fill="#3278ab"/>
      <path id="Path_430" data-name="Path 430" d="M568.807,275.576a2.561,2.561,0,0,0-1-.79,9.7,9.7,0,0,0-1.5-.492v-2.929a4.268,4.268,0,0,1,2.132.972l.595-1.268a3.934,3.934,0,0,0-1.16-.717,5.7,5.7,0,0,0-1.472-.378V268.49h-1.377v1.5a3.771,3.771,0,0,0-1.5.505,2.991,2.991,0,0,0-1.02,1,2.511,2.511,0,0,0-.363,1.33,2.273,2.273,0,0,0,.418,1.423,2.647,2.647,0,0,0,1.04.824,9.61,9.61,0,0,0,1.525.505v2.807a4.558,4.558,0,0,1-2.537-1.012l-.595,1.27a4.483,4.483,0,0,0,1.357.77,6.23,6.23,0,0,0,1.68.35v1.472H566.4v-1.5a3.564,3.564,0,0,0,2.045-.938,2.479,2.479,0,0,0,.763-1.842A2.2,2.2,0,0,0,568.807,275.576Zm-3.685-1.592a2.644,2.644,0,0,1-.917-.492.971.971,0,0,1-.325-.762,1.228,1.228,0,0,1,.332-.877,1.678,1.678,0,0,1,.91-.472Zm2.052,3.882a1.561,1.561,0,0,1-.865.451V275.9a2.415,2.415,0,0,1,.865.432.85.85,0,0,1,.3.675,1.241,1.241,0,0,1-.3.857Z" transform="translate(4127.533 -1185.056)" fill="#e6e6e6"/>
      <path id="Path_429-2" data-name="Path 429" d="M544.314,255.181a10.762,10.762,0,1,1-21.524,0c0-.341.016-.677.047-1.009a10.762,10.762,0,0,1,21.476,1.009Z" transform="translate(4159.583 -1110.051)" fill="#3278ab"/>
      <path id="Path_430-2" data-name="Path 430" d="M568.807,275.576a2.561,2.561,0,0,0-1-.79,9.7,9.7,0,0,0-1.5-.492v-2.929a4.268,4.268,0,0,1,2.132.972l.595-1.268a3.934,3.934,0,0,0-1.16-.717,5.7,5.7,0,0,0-1.472-.378V268.49h-1.377v1.5a3.771,3.771,0,0,0-1.5.505,2.991,2.991,0,0,0-1.02,1,2.511,2.511,0,0,0-.363,1.33,2.273,2.273,0,0,0,.418,1.423,2.647,2.647,0,0,0,1.04.824,9.61,9.61,0,0,0,1.525.505v2.807a4.558,4.558,0,0,1-2.537-1.012l-.595,1.27a4.483,4.483,0,0,0,1.357.77,6.23,6.23,0,0,0,1.68.35v1.472H566.4v-1.5a3.564,3.564,0,0,0,2.045-.938,2.479,2.479,0,0,0,.763-1.842A2.2,2.2,0,0,0,568.807,275.576Zm-3.685-1.592a2.644,2.644,0,0,1-.917-.492.971.971,0,0,1-.325-.762,1.228,1.228,0,0,1,.332-.877,1.678,1.678,0,0,1,.91-.472Zm2.052,3.882a1.561,1.561,0,0,1-.865.451V275.9a2.415,2.415,0,0,1,.865.432.85.85,0,0,1,.3.675,1.241,1.241,0,0,1-.3.857Z" transform="translate(4127.533 -1129.731)" fill="#e6e6e6"/>
      <path id="Path_429-3" data-name="Path 429" d="M544.314,255.181a10.762,10.762,0,1,1-21.524,0c0-.341.016-.677.047-1.009a10.762,10.762,0,0,1,21.476,1.009Z" transform="translate(4159.583 -1052.146)" fill="#3278ab"/>
      <path id="Path_430-3" data-name="Path 430" d="M568.807,275.576a2.561,2.561,0,0,0-1-.79,9.7,9.7,0,0,0-1.5-.492v-2.929a4.268,4.268,0,0,1,2.132.972l.595-1.268a3.934,3.934,0,0,0-1.16-.717,5.7,5.7,0,0,0-1.472-.378V268.49h-1.377v1.5a3.771,3.771,0,0,0-1.5.505,2.991,2.991,0,0,0-1.02,1,2.511,2.511,0,0,0-.363,1.33,2.273,2.273,0,0,0,.418,1.423,2.647,2.647,0,0,0,1.04.824,9.61,9.61,0,0,0,1.525.505v2.807a4.558,4.558,0,0,1-2.537-1.012l-.595,1.27a4.483,4.483,0,0,0,1.357.77,6.23,6.23,0,0,0,1.68.35v1.472H566.4v-1.5a3.564,3.564,0,0,0,2.045-.938,2.479,2.479,0,0,0,.763-1.842A2.2,2.2,0,0,0,568.807,275.576Zm-3.685-1.592a2.644,2.644,0,0,1-.917-.492.971.971,0,0,1-.325-.762,1.228,1.228,0,0,1,.332-.877,1.678,1.678,0,0,1,.91-.472Zm2.052,3.882a1.561,1.561,0,0,1-.865.451V275.9a2.415,2.415,0,0,1,.865.432.85.85,0,0,1,.3.675,1.241,1.241,0,0,1-.3.857Z" transform="translate(4127.533 -1071.826)" fill="#e6e6e6"/>
    </g>
  </g>
</svg>
